<?xml version="1.0" encoding="UTF-8"?>
<svg width="40px" height="40px" viewBox="0 0 40 40" version="1.1" xmlns="http://www.w3.org/2000/svg" xmlns:xlink="http://www.w3.org/1999/xlink">
    <!-- Generator: Sketch 52.6 (67491) - http://www.bohemiancoding.com/sketch -->
    <title>ayotree-arrow-right</title>
    <desc>Created with Sketch.</desc>
    <g id="Home" stroke="none" stroke-width="1" fill="none" fill-rule="evenodd">
        <g id="Testimonial:-Rebecca-Ambesh" transform="translate(-902.000000, -521.000000)">
            <g id="BLOCK:-Testimonial-Copy" transform="translate(0.000000, 1.000000)">
                <g id="Testimonial" transform="translate(82.000000, 400.000000)">
                    <g id="ayotree-arrow-right" transform="translate(820.000000, 120.000000)">
                        <g>
                            <path d="M38.2912621,20.2330097 C38.2912621,18.2524272 38.2135922,16.3106796 37.631068,14.5242718 C37.0097087,12.6990291 36.0776699,10.9902913 34.9126214,9.47572816 C33.7864078,7.9223301 32.5436893,6.36893204 30.9902913,5.24271845 C27.8446602,2.95145631 24.038835,1.70873786 20.1165049,1.70873786 C18.1359223,1.74757282 16.1553398,2.09708738 14.2912621,2.67961165 C12.3883495,3.22330097 10.6019417,4.03883495 8.93203883,5.12621359 C7.30097087,6.21359223 5.82524272,7.57281553 4.58252427,9.12621359 C3.33980583,10.6796117 2.6407767,12.5436893 2.13592233,14.4466019 C1.63106796,16.3495146 1.2038835,18.2524272 1.55339806,20.2330097 C1.90291262,22.0582524 2.48543689,23.8834951 3.26213592,25.592233 C4.03883495,27.3009709 4.97087379,28.9320388 6.09708738,30.407767 C7.14563107,31.961165 8.38834951,33.3592233 9.78640777,34.6019417 C11.184466,35.8446602 12.776699,36.8932039 14.5242718,37.6699029 C16.2718447,38.368932 18.1747573,38.407767 20.0776699,38.407767 C21.9805825,38.407767 23.8834951,38.0970874 25.7087379,37.5533981 C27.5728155,36.9320388 29.3980583,36.2718447 30.9514563,35.184466 C32.5048544,34.0582524 33.9029126,32.6601942 35.0291262,31.1067961 C36.1553398,29.5533981 37.0485437,27.8058252 37.631068,25.9417476 C38.2135922,24.1553398 38.2912621,22.2135922 38.2912621,20.2330097 Z" id="Path" fill="#14B1E7"></path>
                            <path d="M19.4563107,39.8058252 C17.6699029,39.8058252 15.8058252,39.6893204 14.0194175,38.9902913 C12,38.1747573 10.2524272,36.815534 8.93203883,35.7281553 C7.45631068,34.407767 6.13592233,32.9320388 5.00970874,31.2621359 C3.80582524,29.6699029 2.83495146,27.961165 2.01941748,26.1747573 C1.2038835,24.3495146 0.621359223,22.4854369 0.233009709,20.5048544 C-0.155339806,18.2135922 0.27184466,16.0776699 0.815533981,14.0970874 C1.2815534,12.3883495 2.01941748,10.2135922 3.49514563,8.31067961 C4.81553398,6.6407767 6.36893204,5.16504854 8.11650485,4 C9.90291262,2.87378641 11.8058252,1.98058252 13.8252427,1.39805825 C15.8446602,0.737864078 17.9417476,0.388349515 20.038835,0.349514563 C22.1359223,0.349514563 24.1941748,0.699029126 26.1747573,1.32038835 C28.1553398,1.98058252 30.0194175,2.91262136 31.7281553,4.15533981 C33.4368932,5.39805825 34.7961165,7.06796117 35.961165,8.69902913 C37.2427184,10.3300971 38.2135922,12.1941748 38.9126214,14.1359223 C39.5728155,16.1165049 39.6504854,18.2524272 39.6504854,20.2718447 C39.6504854,22.6019417 39.5339806,24.5436893 38.9126214,26.407767 C38.2912621,28.3883495 37.3203883,30.2524272 36.1165049,31.961165 C34.8737864,33.631068 33.3980583,35.1067961 31.7281553,36.3495146 C30.0194175,37.592233 28.038835,38.2912621 26.1359223,38.9126214 C24.1941748,39.5339806 22.1359223,39.8446602 20.0776699,39.8446602 L19.4563107,39.8058252 Z M20.0230754,4.23300971 C18.3225823,4.26918252 16.6220891,4.55856504 14.9939574,5.10115726 C13.329645,5.57140386 11.7738747,6.29486015 10.3266466,7.19918052 C8.91559909,8.17584652 7.64927444,9.3333766 6.60003401,10.6717707 C5.51461287,12.0825105 4.9357216,13.8188056 4.53773385,15.1571998 C4.1035654,16.7126308 3.74175836,18.3404075 4.03120399,20.004357 C4.35683033,21.6321336 4.86336019,23.2237375 5.55079358,24.7429957 C6.23822696,26.2622539 7.07038317,27.6729937 8.04726219,28.975215 C8.9517798,30.349782 10.0372009,31.5796577 11.2673449,32.6648422 C12.352766,33.5691625 13.7999942,34.6905198 15.3195838,35.3054576 C16.766812,35.8842227 18.4311244,35.9203955 19.9868947,35.8842227 C21.6512071,35.8842227 23.2793388,35.631013 24.8351091,35.1245936 C26.4994215,34.5820013 28.0913725,34.0032363 29.3576971,33.0989159 C30.6963832,32.1222499 31.8903464,30.928547 32.9034061,29.5539801 C33.8802852,28.2155859 34.64008,26.6963277 35.1466098,25.1047239 C35.616959,23.6939841 35.6893204,22.1023802 35.6893204,20.185221 C35.6893204,18.2680619 35.5807783,16.7126308 35.1104291,15.2657182 C34.5677186,13.7102872 33.7717431,12.2272018 32.7225026,10.9249805 C31.7456236,9.5865863 30.6602025,8.21201934 29.3576971,7.27152615 C27.9828303,6.29486015 26.4994215,5.53523104 24.9074705,4.99263882 C23.3878809,4.52239223 21.7235685,4.23300971 20.0230754,4.23300971 Z" id="Shape" fill="#FFFFFF" fill-rule="nonzero"></path>
                            <path d="M24.9320388,18.5631068 C25.2815534,18.5242718 25.631068,18.6796117 25.9029126,18.9126214 C26.4854369,19.4563107 26.4854369,20.3495146 25.9417476,20.9320388 C24.9708738,21.9029126 24.9320388,21.8640777 23.961165,22.8349515 C22.9902913,23.8058252 22.9514563,23.7669903 21.9805825,24.7378641 C21.0097087,25.7087379 21.0485437,25.7475728 20.0776699,26.7184466 C19.1067961,27.6893204 19.0679612,27.6504854 18.0970874,28.6601942 C17.5533981,29.2427184 16.6601942,29.2815534 16.0776699,28.776699 C15.5339806,28.1553398 15.5339806,27.2621359 16.0776699,26.6407767 C17.0485437,25.6699029 17.1650485,25.7864078 18.1359223,24.815534 C19.1067961,23.8446602 18.9902913,23.7281553 19.961165,22.7572816 C20.9320388,21.7864078 21.0485437,21.9029126 22.0194175,20.8932039 C22.9902913,19.8834951 22.9902913,19.9223301 23.961165,18.9514563 C24.2330097,18.7184466 24.5825243,18.5631068 24.9320388,18.5631068 Z" id="Path" fill="#FFFFFF"></path>
                            <path d="M17.1650485,11.3398058 C17.5533981,11.3398058 17.9029126,11.4951456 18.1747573,11.7669903 C19.1067961,12.6990291 19.0291262,12.776699 19.961165,13.7087379 L21.8252427,15.5728155 C22.7572816,16.5048544 22.7184466,16.5436893 23.6504854,17.4757282 C24.5825243,18.407767 24.5825243,18.407767 25.5145631,19.3398058 C26.0194175,19.8446602 26.0582524,20.6601942 25.5533981,21.2038835 C25.5533981,21.2038835 25.5533981,21.2038835 25.5145631,21.2427184 C25.0097087,21.7864078 24.1165049,21.8252427 23.5728155,21.2815534 C23.5728155,21.2815534 23.5728155,21.2815534 23.5728155,21.2815534 C22.6407767,20.3495146 22.6796117,20.3106796 21.7475728,19.3786408 C20.815534,18.4466019 20.776699,18.4854369 19.8446602,17.5533981 C18.9126214,16.6213592 18.9126214,16.6213592 17.9805825,15.6893204 C17.0485437,14.7572816 17.1262136,14.6796117 16.1941748,13.7475728 C15.6893204,13.2815534 15.6504854,12.5048544 16.1165049,12 C16.1553398,11.961165 16.1553398,11.961165 16.1941748,11.9223301 C16.4660194,11.6116505 16.776699,11.4174757 17.1650485,11.3398058 Z" id="Path" fill="#FFFFFF"></path>
                        </g>
                    </g>
                </g>
            </g>
        </g>
    </g>
</svg>