<?xml version="1.0" encoding="UTF-8"?>
<svg width="1200px" height="827px" viewBox="0 0 1200 827" version="1.1" xmlns="http://www.w3.org/2000/svg" xmlns:xlink="http://www.w3.org/1999/xlink">
    <!-- Generator: Sketch 51.3 (57544) - http://www.bohemiancoding.com/sketch -->
    <title>ayotree-logo-tall-white</title>
    <desc>Created with Sketch.</desc>
    <defs></defs>
    <g id="ayotree-logo-tall-white" stroke="none" stroke-width="1" fill="none" fill-rule="evenodd">
        <g id="Group-19" fill="#FFFFFF">
            <path d="M571.588,246.7568 C546.012,286.4048 533.812,319.3248 501.244,361.9648 C499.236,360.5808 497.284,359.1248 495.372,357.6288 C486.708,348.8368 479.948,338.4928 475.14,327.2048 C466.524,306.9328 464.212,283.6288 468.508,260.7168 C476.068,220.5088 518.396,174.7808 566.5,151.5408 C629.396,121.1488 766.284,73.1088 766.428,73.0368 C724.892,28.1328 665.468,0.0048 599.46,0.0048 C493.652,0.0048 404.716,72.2768 379.324,170.1488 C363.828,164.5808 347.132,161.5408 329.724,161.5408 C248.732,161.5408 183.076,227.1968 183.076,308.1888 C183.076,389.1808 248.732,454.8368 329.724,454.8368 C394.372,454.8368 438.772,442.3088 472.748,416.2848 C482.62,408.7248 491.62,400.0288 499.972,390.1568 C505.18,384.0048 509.324,376.8528 514.244,369.7728 C542.836,328.6448 552.948,294.6848 570.396,260.7968 C581.052,240.0928 607.884,201.7408 629.612,181.3488 C629.612,181.3488 596.148,208.6848 571.588,246.7568" id="Fill-1"></path>
            <path d="M924.5416,238.116 C929.3656,224.948 931.9896,210.74 931.9896,195.908 C931.9896,128.052 876.9816,73.036 809.1176,73.036 C796.0456,73.036 783.4696,75.1 771.6696,78.868 C771.4056,78.58 771.4456,78.628 771.6536,78.876 C726.1176,93.388 704.3496,124.844 694.2856,152.124 C694.0136,152.828 693.7656,153.548 693.5176,154.26 C693.5096,154.26 693.5096,154.26 693.5096,154.268 C692.9176,155.868 692.3816,157.5 691.8776,159.148 C690.0536,164.972 688.6376,170.972 687.6936,177.132 C686.3736,185.228 686.0856,191.836 686.2456,195.908 C686.2456,197.772 686.3016,199.62 686.3816,201.468 L686.3816,201.556 C685.5336,237.156 689.1176,277.804 671.9016,318.508 C647.3496,376.556 577.5176,391.068 534.8136,378.212 C533.2056,377.716 531.6056,377.188 530.0216,376.62 C524.9256,385.172 519.5496,393.044 513.5416,400.148 C505.5736,409.564 497.0856,418.044 487.9576,425.644 C520.9096,444.22 558.9416,454.836 599.4616,454.836 L907.9416,454.836 C968.1336,454.836 1016.9336,406.044 1016.9336,345.852 C1016.9336,291.3 976.8536,246.116 924.5416,238.116" id="Fill-3"></path>
            <path d="M129.3928,689.308 C118.3128,685.02 102.9448,681.804 86.1448,681.804 C58.9768,681.804 42.8888,692.884 42.8888,711.116 L42.8888,711.828 C42.8888,729.7 58.9768,739.708 79.3528,739.708 C107.9448,739.708 129.3928,723.628 129.3928,700.028 L129.3928,689.308 Z M128.3208,768.308 L128.3208,745.068 C115.4568,760.444 95.8008,772.236 67.2008,772.236 C31.4568,772.236 0.0008,751.86 0.0008,713.972 L0.0008,713.26 C0.0008,671.436 32.5288,651.42 76.4968,651.42 C99.3688,651.42 114.0248,654.636 128.6808,659.284 L128.6808,655.708 C128.6808,629.62 112.2328,615.316 82.2168,615.316 C61.1288,615.316 45.3928,619.964 28.2328,627.116 L16.4488,592.444 C37.1768,583.148 57.5528,576.708 88.2888,576.708 C144.0488,576.708 171.2248,606.02 171.2248,656.428 L171.2248,768.308 L128.3208,768.308 Z" id="Fill-5"></path>
            <path d="M184.4552,815.128 L199.1112,782.96 C206.9672,787.248 215.5512,790.112 224.4872,790.112 C236.6392,790.112 244.1432,784.744 251.2872,768.304 L172.6552,579.576 L218.7672,579.576 L272.3832,719.688 L321.3512,579.576 L366.3912,579.576 L291.3272,773.664 C276.3112,812.272 259.5192,826.568 229.1352,826.568 C210.9112,826.568 197.6712,822.28 184.4552,815.128" id="Fill-7"></path>
            <path d="M515.4632,675.0104 L515.4632,674.2904 C515.4632,641.0504 491.5112,613.5224 457.5592,613.5224 C422.8872,613.5224 400.7192,640.6904 400.7192,673.5784 L400.7192,674.2904 C400.7192,707.1784 424.6632,735.0584 458.2712,735.0584 C493.2952,735.0584 515.4632,707.5384 515.4632,675.0104 M357.4712,675.0104 L357.4712,674.2904 C357.4712,620.3224 400.3592,575.6424 458.2712,575.6424 C516.1752,575.6424 558.7032,619.6024 558.7032,673.5784 L558.7032,674.2904 C558.7032,727.9064 515.8152,772.5944 457.5592,772.5944 C399.9992,772.5944 357.4712,728.6264 357.4712,675.0104" id="Fill-9"></path>
            <path d="M586.596,716.116 L586.596,616.748 L562.652,616.748 L562.652,579.572 L586.596,579.572 L586.596,527.74 L629.852,527.74 L629.852,579.572 L680.612,579.572 L680.612,616.748 L629.852,616.748 L629.852,709.324 C629.852,726.124 638.428,732.916 653.084,732.916 C662.74,732.916 671.316,730.772 679.892,726.484 L679.892,761.868 C669.164,767.948 657.02,771.516 640.932,771.516 C609.116,771.516 586.596,757.58 586.596,716.116" id="Fill-11"></path>
            <path d="M706.3464,579.5736 L749.6024,579.5736 L749.6024,622.1096 C761.3944,593.8696 783.1944,574.5656 816.4424,575.9976 L816.4424,621.7496 L813.9384,621.7496 C776.0504,621.7496 749.6024,646.4136 749.6024,696.4536 L749.6024,768.3016 L706.3464,768.3016 L706.3464,579.5736 Z" id="Fill-13"></path>
            <path d="M959.0728,660.7136 C956.2168,632.8336 939.7688,611.0256 911.1768,611.0256 C884.7208,611.0256 866.1368,631.4016 862.2088,660.7136 L959.0728,660.7136 Z M819.3128,674.6496 L819.3128,673.9376 C819.3128,619.9616 857.5608,575.6416 911.5368,575.6416 C971.5768,575.6416 1001.9608,622.8256 1001.9608,677.1536 C1001.9608,681.0816 1001.6008,685.0176 1001.2488,689.3056 L862.5608,689.3056 C867.2088,720.0496 889.0088,737.2096 916.8968,737.2096 C937.9768,737.2096 952.9928,729.3456 968.0088,714.6896 L993.3848,737.2096 C975.5208,758.6496 950.8568,772.5936 916.1768,772.5936 C861.4888,772.5936 819.3128,732.9136 819.3128,674.6496 Z" id="Fill-15"></path>
            <path d="M1157.104,660.7136 C1154.248,632.8336 1137.808,611.0256 1109.208,611.0256 C1082.76,611.0256 1064.168,631.4016 1060.24,660.7136 L1157.104,660.7136 Z M1017.344,674.6496 L1017.344,673.9376 C1017.344,619.9616 1055.592,575.6416 1109.568,575.6416 C1169.616,575.6416 1200,622.8256 1200,677.1536 C1200,681.0816 1199.64,685.0176 1199.28,689.3056 L1060.6,689.3056 C1065.248,720.0496 1087.048,737.2096 1114.928,737.2096 C1136.016,737.2096 1151.024,729.3456 1166.04,714.6896 L1191.416,737.2096 C1173.552,758.6496 1148.888,772.5936 1114.216,772.5936 C1059.52,772.5936 1017.344,732.9136 1017.344,674.6496 Z" id="Fill-17"></path>
        </g>
    </g>
</svg>