<?xml version="1.0" encoding="UTF-8"?>
<svg width="41px" height="40px" viewBox="0 0 41 40" version="1.1" xmlns="http://www.w3.org/2000/svg" xmlns:xlink="http://www.w3.org/1999/xlink">
    <!-- Generator: Sketch 52.6 (67491) - http://www.bohemiancoding.com/sketch -->
    <title>ayotree-arrow-left</title>
    <desc>Created with Sketch.</desc>
    <g id="Home" stroke="none" stroke-width="1" fill="none" fill-rule="evenodd">
        <g id="Testimonial:-Rebecca-Ambesh" transform="translate(-82.000000, -521.000000)">
            <g id="BLOCK:-Testimonial-Copy" transform="translate(0.000000, 1.000000)">
                <g id="Testimonial" transform="translate(82.000000, 400.000000)">
                    <g id="ayotree-arrow-left" transform="translate(0.000000, 120.000000)">
                        <g>
                            <path d="M39.4202941,20.2485437 C39.4534796,18.3612549 39.0968203,16.4865173 38.3711765,14.7339806 C37.5579764,13.0153326 36.527833,11.40048 35.3042157,9.92621359 C34.1385294,8.44660194 32.9246078,6.90097087 31.3931373,5.70873786 C29.8606933,4.51088296 28.1541882,3.53735356 26.3284314,2.81941748 C24.4937041,2.10160902 22.5356307,1.72351875 20.5562745,1.70485437 C18.5464673,1.74133794 16.5551457,2.08339215 14.6554902,2.7184466 C12.7340919,3.28881159 10.916745,4.14575053 9.26921569,5.25825243 C7.66032733,6.41655938 6.24735203,7.80920045 5.08078431,9.38640777 C3.91509804,10.9398058 3.23980392,12.7650485 2.61676471,14.6174757 C2.01382353,16.4038835 1.41088235,18.2679612 1.41088235,20.2485437 C1.45346699,22.1841634 1.81019207,24.1013364 2.46803922,25.9300971 C3.1224182,27.7466633 4.07223581,29.4508792 5.28176471,30.9786408 C6.41473171,32.553575 7.79693228,33.9466331 9.3777451,35.1067961 C10.9672962,36.2878686 12.7386711,37.2208788 14.6273529,37.8718447 C16.4803922,38.4466019 18.4901961,38.4466019 20.5562745,38.4466019 C22.5398983,38.4866275 24.5176669,38.2245155 26.4168627,37.6699029 C28.3462745,37.0757282 30.2636275,36.4271845 31.867451,35.3048544 C35.1497082,33.0024108 37.5678626,29.7310869 38.7570588,25.984466 C39.3439216,24.1864078 39.4202941,22.2485437 39.4202941,20.2485437 Z" id="Path" fill="#14B1E7"></path>
                            <path d="M20.6567647,39.8097087 L20.3552941,39.8097087 C18.3093137,39.8097087 16.195,39.8097087 14.1932353,39.1650485 C12.1714039,38.4651105 10.2733066,37.4682964 8.56578431,36.2097087 C6.85796742,34.9625722 5.36558893,33.4617444 4.14421569,31.7631068 C2.83659024,30.1294238 1.81294239,28.3009822 1.11343137,26.3495146 C0.406729202,24.3865327 0.030801973,22.3266653 7.10542736e-15,20.2485437 C7.10542736e-15,18.023301 0.683333333,15.976699 1.28627451,14.1980583 C1.92539216,12.2990291 2.65294118,10.3145631 3.9472549,8.58640777 C5.19877414,6.88905718 6.71469518,5.38909833 8.44117647,4.13980583 C10.2102305,2.94936694 12.1603082,2.03223852 14.2213725,1.42135922 C16.2612526,0.744878816 18.399735,0.38698747 20.5562745,0.361165049 C22.7118975,0.374930203 24.8457093,0.779337736 26.8469608,1.55339806 C28.8038774,2.32593354 30.6323284,3.37276946 32.2734314,4.66019417 C33.9415686,5.95339806 35.2037255,7.55728155 36.4256863,9.11067961 C37.7173046,10.6788149 38.8053342,12.3938402 39.6654902,14.2174757 C40.4707889,16.1339886 40.8659557,18.1882327 40.8271569,20.2563107 C40.8271569,22.1514563 40.7708824,24.3417476 40.0996078,26.3883495 C38.8183715,30.4119191 36.2184196,33.9242341 32.6914706,36.3961165 C30.8987255,37.6466019 28.8205882,38.3378641 26.8429412,38.9514563 C24.8395869,39.54644 22.7524611,39.8360019 20.6567647,39.8097087 Z M20.5470138,4.22912621 C18.8128917,4.25476784 17.0940155,4.54661106 15.4547455,5.09372833 C13.7975445,5.58003838 12.2286654,6.31229812 10.8043064,7.26427757 C9.41451922,8.2719457 8.19442481,9.4812511 7.18729824,10.8493014 C6.21003206,12.1480134 5.61094167,13.7940132 5.08299327,15.3676614 C4.55504487,16.9413096 4.01960784,18.565604 4.01960784,20.2369269 C4.05428455,21.9066757 4.36524848,23.5603105 4.94070931,25.135133 C5.50948323,26.7009437 6.33778204,28.1670755 7.39323556,29.4762315 C9.36348515,32.2284379 12.1739009,34.317708 15.4322796,35.452477 C16.9037954,35.9155276 18.5887371,35.9191451 20.371031,35.9263803 L20.5545024,35.9263803 C22.2663016,35.95441 23.9720333,35.7224695 25.6093275,35.2390397 C27.2493374,34.7361958 28.9792109,34.1537651 30.3159313,33.2204289 C31.7216188,32.228667 32.9562466,31.0285018 33.974127,29.6643457 C34.9800579,28.2995035 35.7524932,26.787379 36.2619034,25.1857791 C36.7786188,23.6193661 36.8198063,21.8105751 36.8198063,20.2369269 C36.8543886,18.646228 36.5563847,17.065143 35.9436366,15.5883339 C35.2176284,14.0867544 34.3047638,12.6763359 33.225264,11.3883211 C32.1843445,10.0606685 31.1059818,8.6896049 29.8067045,7.68029951 C28.4796939,6.64515204 27.0039808,5.80187903 25.4258561,5.17693272 C23.8745566,4.57118017 22.2200856,4.24976819 20.5470138,4.22912621 Z" id="Shape" fill="#FFFFFF" fill-rule="nonzero"></path>
                            <path d="M14.1892157,21.5378641 C13.827225,21.5613465 13.4715771,21.4374234 13.2084314,21.1961165 C12.646199,20.6707871 12.6229592,19.8072156 13.1561765,19.2543689 C14.1208824,18.3223301 14.1771569,18.376699 15.1418627,17.4485437 C16.1065686,16.5203883 16.1467647,16.5514563 17.1114706,15.6194175 C18.0761765,14.6873786 18.0440196,14.6524272 19.0087255,13.7203883 C19.9734314,12.7883495 20.0015686,12.8116505 20.9662745,11.8796117 C21.4920073,11.3181944 22.38669,11.2680599 22.9760784,11.7669903 C23.5272358,12.345281 23.5272358,13.2353016 22.9760784,13.8135922 C22.0113725,14.7456311 21.9068627,14.6446602 20.9421569,15.576699 C19.977451,16.5087379 20.09,16.6174757 19.1252941,17.5495146 C18.1605882,18.4815534 18.060098,18.3883495 17.0913725,19.3203883 C16.1226471,20.2524272 16.1347059,20.2640777 15.17,21.1961165 C14.9053079,21.4349907 14.5507895,21.5585201 14.1892157,21.5378641 Z" id="Path" fill="#FFFFFF"></path>
                            <path d="M21.914902,29.1533981 C21.5194391,29.1498852 21.1401257,29.0013542 20.8537255,28.7378641 C19.8890196,27.8058252 19.9533333,27.7436893 18.9886275,26.7961165 L17.0551961,24.9320388 C16.0904902,23.9961165 16.1266667,23.9650485 15.1579412,23.0291262 C14.1892157,22.0932039 14.1851961,22.1048544 13.2204902,21.1728155 C12.9569851,20.9256322 12.8082884,20.5859084 12.8082884,20.231068 C12.8082884,19.8762275 12.9569851,19.5365037 13.2204902,19.2893204 C13.48133,19.0256653 13.8404078,18.8736487 14.2178511,18.8670848 C14.5952945,18.8605208 14.9598022,18.9999539 15.2302941,19.2543689 C16.195,20.1864078 16.1708824,20.2135922 17.1355882,21.1456311 C18.1002941,22.0776699 18.1485294,22.031068 19.1132353,22.9631068 C20.0779412,23.8951456 20.0658824,23.9106796 21.0305882,24.8427184 C21.9952941,25.7747573 21.9108824,25.8601942 22.8755882,26.784466 C23.1382049,27.0169166 23.2877416,27.3452141 23.2877416,27.6893204 C23.2877416,28.0334267 23.1382049,28.3617241 22.8755882,28.5941748 C22.645572,28.8971204 22.2996118,29.0985067 21.914902,29.1533981 Z" id="Path" fill="#FFFFFF"></path>
                        </g>
                    </g>
                </g>
            </g>
        </g>
    </g>
</svg>