<svg xmlns="http://www.w3.org/2000/svg" xmlns:xlink="http://www.w3.org/1999/xlink" width="1200" height="827" viewBox="0 0 1200 827"><defs><path id="jjiua" d="M571.59 247.2c-25.58 39.64-37.77 72.56-70.34 115.2-2.01-1.38-3.96-2.83-5.88-4.33a97.67 97.67 0 0 1-20.22-30.43c-8.63-20.27-10.94-43.58-6.64-66.48 7.55-40.22 49.88-85.94 98-109.18 62.89-30.4 199.77-78.44 199.93-78.5C724.88 28.57 665.46.44 599.45.44c-105.81 0-194.74 72.27-220.14 170.15-15.49-5.57-32.19-8.61-49.6-8.61-81 0-146.65 65.65-146.65 146.65 0 80.99 65.66 146.65 146.65 146.65 64.65 0 109.05-12.53 143.03-38.56a175.1 175.1 0 0 0 27.22-26.13c5.21-6.15 9.35-13.3 14.27-20.38 28.6-41.13 38.7-75.1 56.15-108.98 10.66-20.7 37.5-59.05 59.22-79.45 0 0-33.46 27.34-58.02 65.41"/><path id="jjiub" d="M924.55 238.55a122.6 122.6 0 0 0 7.44-42.21c0-67.86-55.01-122.87-122.87-122.87-13.06 0-25.64 2.06-37.45 5.83-.26-.3-.22-.24-.02 0-45.53 14.52-67.3 45.98-77.37 73.25-.26.7-.5 1.43-.76 2.14a121.78 121.78 0 0 0-5.82 22.87 99.13 99.13 0 0 0-1.45 18.78c0 1.86.05 3.71.13 5.56l.01.08c-.86 35.61 2.74 76.26-14.49 116.96-24.55 58.05-94.38 72.56-137.08 59.7-1.61-.5-3.21-1.02-4.8-1.58a174.43 174.43 0 0 1-16.48 23.52 207.05 207.05 0 0 1-25.58 25.5 226.34 226.34 0 0 0 111.5 29.2h308.48c60.2 0 109-48.8 109-109 0-54.55-40.08-99.74-92.4-107.73"/><path id="jjiuc" d="M128.32 768.73V745.5c-12.87 15.37-32.52 27.16-61.12 27.16C31.46 772.66 0 752.3 0 714.4v-.71c0-41.83 32.53-61.84 76.5-61.84 22.87 0 37.53 3.21 52.18 7.86v-3.57c0-26.1-16.44-40.4-46.47-40.4-21.08 0-36.81 4.65-53.97 11.8l-11.8-34.67c20.74-9.3 41.1-15.73 71.85-15.73 55.76 0 82.93 29.31 82.93 79.71v111.88h-42.9zm1.08-78.99c-11.08-4.29-26.45-7.5-43.25-7.5-27.17 0-43.25 11.08-43.25 29.3v.72c0 17.87 16.08 27.88 36.45 27.88 28.6 0 50.05-16.08 50.05-39.68z"/><path id="jjiud" d="M184.46 815.56l14.65-32.17c7.87 4.29 16.44 7.15 25.38 7.15 12.15 0 19.66-5.36 26.8-21.8L172.67 580h46.11l53.62 140.12L321.36 580h45.04l-75.07 194.1c-15 38.6-31.8 52.9-62.2 52.9-18.22 0-31.45-4.3-44.67-11.44"/><path id="jjiue" d="M357.47 675.44v-.72c0-53.97 42.9-98.65 100.8-98.65s100.44 43.96 100.44 97.94v.71c0 53.62-42.9 98.3-101.15 98.3-57.55 0-100.09-43.96-100.09-97.58zm158 0v-.72c0-33.24-23.96-60.76-57.91-60.76-34.68 0-56.84 27.17-56.84 60.05v.71c0 32.9 23.95 60.77 57.55 60.77 35.03 0 57.2-27.52 57.2-60.05z"/><path id="jjiuf" d="M586.6 716.54v-99.37h-23.95V580h23.95v-51.83h43.25V580h50.76v37.17h-50.76v92.58c0 16.8 8.58 23.6 23.23 23.6 9.66 0 18.23-2.15 26.81-6.44v35.39c-10.72 6.07-22.87 9.65-38.96 9.65-31.81 0-54.33-13.94-54.33-55.4"/><path id="jjiug" d="M706.35 580h43.25v42.54c11.8-28.23 33.6-47.54 66.84-46.1v45.75h-2.5c-37.89 0-64.34 24.66-64.34 74.7v71.85h-43.25V580.01"/><path id="jjiuh" d="M819.31 675.08v-.71c0-53.98 38.24-98.3 92.22-98.3 60.05 0 90.44 47.18 90.44 101.51 0 3.94-.36 7.87-.72 12.16H862.56c4.65 30.74 26.45 47.9 54.33 47.9 21.1 0 36.1-7.87 51.12-22.52l25.38 22.52c-17.88 21.44-42.54 35.38-77.21 35.38-54.7 0-96.87-39.68-96.87-97.94zm139.76-13.95c-2.86-27.87-19.3-49.67-47.9-49.67-26.45 0-45.04 20.37-48.97 49.67z"/><path id="jjiui" d="M1017.34 675.08v-.71c0-53.98 38.25-98.3 92.23-98.3 60.05 0 90.43 47.18 90.43 101.51 0 3.94-.36 7.87-.72 12.16h-138.69c4.65 30.74 26.46 47.9 54.34 47.9 21.08 0 36.1-7.87 51.11-22.52l25.38 22.52c-17.87 21.44-42.54 35.38-77.21 35.38-54.69 0-96.87-39.68-96.87-97.94zm139.76-13.95c-2.85-27.87-19.3-49.67-47.89-49.67-26.45 0-45.04 20.37-48.97 49.67z"/></defs><g><g><use fill="#b9d143" xlink:href="#jjiua"/></g><g><use fill="#619240" xlink:href="#jjiub"/></g><g clip-path="url(#clip-A268673D-A9EF-46C6-B345-F91CABD1E85E)"><use fill="#2e98c8" xlink:href="#jjiuc"/></g><g clip-path="url(#clip-A268673D-A9EF-46C6-B345-F91CABD1E85E)"><use fill="#2e98c8" xlink:href="#jjiud"/></g><g><use fill="#2e98c8" xlink:href="#jjiue"/></g><g><use fill="#2e98c8" xlink:href="#jjiuf"/></g><g><use fill="#2e98c8" xlink:href="#jjiug"/></g><g><use fill="#2e98c8" xlink:href="#jjiuh"/></g><g><use fill="#2e98c8" xlink:href="#jjiui"/></g></g></svg>